<svg width="96" height="96" viewBox="0 0 96 96" fill="none" xmlns="http://www.w3.org/2000/svg">
<path d="M44.0698 11.2578C44.2412 10.3402 44.7281 9.51143 45.4462 8.91504C46.1643 8.31865 47.0683 7.99219 48.0018 7.99219C48.9352 7.99219 49.8393 8.31865 50.5574 8.91504C51.2755 9.51143 51.7624 10.3402 51.9338 11.2578L56.1378 33.4898C56.4363 35.0704 57.2045 36.5242 58.3419 37.6616C59.4793 38.7991 60.9332 39.5672 62.5138 39.8658L84.7458 44.0698C85.6634 44.2412 86.4921 44.7281 87.0885 45.4462C87.6849 46.1643 88.0113 47.0683 88.0113 48.0018C88.0113 48.9352 87.6849 49.8393 87.0885 50.5574C86.4921 51.2755 85.6634 51.7624 84.7458 51.9338L62.5138 56.1378C60.9332 56.4363 59.4793 57.2045 58.3419 58.3419C57.2045 59.4793 56.4363 60.9332 56.1378 62.5138L51.9338 84.7458C51.7624 85.6634 51.2755 86.4921 50.5574 87.0885C49.8393 87.6849 48.9352 88.0113 48.0018 88.0113C47.0683 88.0113 46.1643 87.6849 45.4462 87.0885C44.7281 86.4921 44.2412 85.6634 44.0698 84.7458L39.8658 62.5138C39.5672 60.9332 38.7991 59.4793 37.6616 58.3419C36.5242 57.2045 35.0704 56.4363 33.4898 56.1378L11.2578 51.9338C10.3402 51.7624 9.51143 51.2755 8.91504 50.5574C8.31865 49.8393 7.99219 48.9352 7.99219 48.0018C7.99219 47.0683 8.31865 46.1643 8.91504 45.4462C9.51143 44.7281 10.3402 44.2412 11.2578 44.0698L33.4898 39.8658C35.0704 39.5672 36.5242 38.7991 37.6616 37.6616C38.7991 36.5242 39.5672 35.0704 39.8658 33.4898L44.0698 11.2578Z" stroke="#E8B4A8" stroke-width="6" stroke-linecap="round" stroke-linejoin="round"/>
<path d="M80 8V24" stroke="#E8B4A8" stroke-width="6" stroke-linecap="round" stroke-linejoin="round"/>
<path d="M88 16H72" stroke="#E8B4A8" stroke-width="6" stroke-linecap="round" stroke-linejoin="round"/>
<path d="M16 88C20.4183 88 24 84.4183 24 80C24 75.5817 20.4183 72 16 72C11.5817 72 8 75.5817 8 80C8 84.4183 11.5817 88 16 88Z" stroke="#E8B4A8" stroke-width="6" stroke-linecap="round" stroke-linejoin="round"/>
</svg>
